<svg xmlns="http://www.w3.org/2000/svg" width="250" height="57" fill="none"><path fill="#fff" d="M1.92 28.08q-.84-1.04-.84-1.56 0-.56.92-1.48.96-.96 1.24-1.04.32-.08.6-.08t.92.36q2.96 2.32 5.2 2.32t2.92-1.04.68-2.72-1.2-2.72T8.4 17.6a17 17 0 0 1-4.76-3.84Q1.6 11.4 1.6 8.88q0-4.48 2.32-6.52Q6.28.28 10.8.28q2.76 0 5.4 1.32 1.4.56 1.32 1.16-.04.24-.08.72-.76 2.16-1.16 2.48-.12.08-.56.08-.4 0-2.2-.64-1.8-.68-3.08-.68-1.24 0-2.08.88t-.84 2.48T8.96 11q1.44 1.28 4.44 2.68 3.16 1.64 4.72 3.4 1.6 1.76 1.6 4.72 0 9.84-8.32 9.84-6.2 0-9.48-3.56m22.698-13.72h-3.2q-.48 0-.52-.2a1.6 1.6 0 0 1-.08-.52q0-1.72.6-1.84l3.2-.64 2.24-4.52q.48-.6 1.84-.6.36 0 .68 1.44t.68 3.68h3.84q.64 0 .64 1.6t-.64 1.6h-3.88v12.72l.64 4.52v.04q.04.24 0 .32-.2.32-2 .32t-2.16-.72l-1.88-3.8zm20.717 15.4q-2.08 1.88-3.72 1.88-1.6 0-2.6-.24a3.76 3.76 0 0 1-1.8-.92q-.8-.76-1.12-2.16t-.32-3.72q0-3.24 3.16-4.44l5.72-1.48q-.04-2.6-.52-3.36t-2.08-.76-2.76.52l-1.4.56h-.04q-.36.2-.64-.32-.72-1.52-.72-2.36 0-.88.12-.96.16-.12.16-.16 2-1.32 5.16-1.32 3.2 0 4.92.84t2.48 3.08q.8 2.2.8 6.56l-.08 10q0 .24-.08.32-.16.32-1.52.32-2.48 0-2.48-.64zm-5.12-5.08q0 2.88 1.68 3.04 1.16 0 1.68-.4 1.12-.76 1.12-5.68-2.08.28-3.28 1.16-1.2.84-1.2 1.88m18.023-11.92q3.28-2.24 4.32-2.24 1.08 0 1.92.4.88.4 1.28.8l.36.36q-.6 2.56-.92 3.2t-.88.64q-.52 0-1.36-.44t-1.52-.44-2.72 1.24V31q0 .24-.08.32-.16.32-1.48.32t-2.48-.2q-1.12-.2-1.12-.44V11.16q0-.64 1.8-.64t2.08.64v.08zm11.966 1.6h-3.2q-.48 0-.52-.2a1.6 1.6 0 0 1-.08-.52q0-1.72.6-1.84l3.2-.64 2.24-4.52q.48-.6 1.84-.6.36 0 .68 1.44t.68 3.68h3.84q.64 0 .64 1.6t-.64 1.6h-3.88v12.72l.64 4.52v.04q.04.24 0 .32-.2.32-2 .32t-2.16-.72l-1.88-3.8zM94.641 2.12q0-1.12.48-1.48t2-.36 2.08.48q.6.48.64 2.32l.48 10.76v1.2q0 6.2-.84 9.84-.8 3.64-2.8 5.2-1.96 1.56-5.64 1.56-5.36 0-7.4-3.36T81.6 16.2V3q0-1.72.48-2.2.52-.52 2.08-.52t2.12.56q.56.52.64 2.56l.56 10.36q0 10.12.8 12.04.32.84.92.84 1.4 0 2.16-.04.76-.08 1.48-.48.72-.44 1-1t.52-1.88q.28-1.84.28-7.04zm18.992 8.4q2.96 0 4.32 2.44 1.4 2.4 1.4 8.4t-1.76 8.16q-1.72 2.12-6.56 2.12h-1.92v8.32q0 .24-.04.32-.2.32-1.52.32t-2.56-.2-1.24-.44v-28.8q0-.64 1.88-.64t2.24.72l.76 1.52q3.36-2.24 5-2.24m-2.6 17.28q1.48 0 2-1.2.56-1.24.56-4.12 0-2.92-.04-3.84 0-.92-.04-2.12-.08-2.16-.56-2.16-1.44 0-3.84 1.44v12zm33.59-26.16q0-.84.36-1.08.4-.28 1.6-.28 2.88 0 2.92 1.48l.76 12v16.4q0 .68-.04.92-.16.56-1.56.56-4.04 0-4.04-1.44V18.6h-6.56l.04 11.56q0 .68-.04.92-.16.56-1.56.56-4 0-4-1.52V1.68q0-.88.36-1.12.4-.28 1.6-.28 2.88 0 2.92 1.4l.68 12.12h6.56zM153.911 31V11.16q0-.64 1.44-.64t2.72.2 1.28.44V31q0 .24-.04.32-.2.32-1.52.32t-2.6-.2-1.28-.44m2.48-24.96q-2.88 0-2.88-2.88t2.88-2.88 2.88 2.88-2.88 2.88m11.103 25.6q-2.96 0-4.36-2.4-1.36-2.44-1.36-8.44t1.72-8.12q1.76-2.16 6.6-2.16h1.92V.92q0-.64 1.4-.64t2.32.2q.92.16.96.44l.68 12.76V31q0 .24-.04.32-.2.32-1.48.32t-2.2-.2q-.88-.16-.88-.44l-.76-1.24q-1.16.76-1.64 1.08-1.32.8-2.88.8m2.6-17.28q-1.48 0-2.04 1.24-.52 1.2-.52 4.12v3.8q.04.92.08 2.12.08 2.16.56 2.16 1.44 0 3.84-1.44v-12zm18.127 17.28q-4.28 0-5.96-2.32-1.64-2.32-1.64-8.32 0-4.32.76-6.56.759-2.28 2.28-3.08 1.56-.84 4.56-.84t4.52.84q1.56.84 2.28 3.12t.72 6.48v.48q0 .24-.96.44-.92.2-2.24.2h-6.16q.08 4.68.68 5.32.36.32 1.16.32 5.24 0 7.16-.52a.3.3 0 0 1 .12-.04q.28-.08.44.32.2.4.2 1.88t-.64 1.64q-1.64.64-7.28.64m-1.84-15.88v3.12h4.04q-.16-4.64-.92-4.64-1.36 0-2.24.4t-.88 1.12M198.785 21q0-4.36.76-6.6.759-2.24 2.4-3.04 1.64-.84 4.84-.84t4.84.84q1.64.8 2.4 3.04t.76 6.6q0 6-1.72 8.32t-6.28 2.32-6.28-2.32-1.72-8.32m5.44 0q0 6.72 1.28 6.72 1.76 0 2.6-.56.44-.32.6-1.16.32-1.68.32-5 0-6.64-1.28-6.64-2.4 0-2.96 1.12-.56 1.08-.56 5.52m19.425 10.64q-2.96 0-4.36-1.84-1.36-1.84-1.36-6.48V11.16q0-.64 1.44-.64 1.48 0 2.88.2t1.4.44l.04 12.16q0 4.48.64 4.48 1.44 0 3.84-1.44v-15.2q0-.64 1.44-.64 1.48 0 2.88.2 1.44.2 1.44.44V31q0 .24-.08.32-.16.32-2.08.32-1.88 0-2.32-.64l-.84-1.24q-2.8 1.88-4.96 1.88m15.812-17.28h-3.2q-.48 0-.52-.2a1.6 1.6 0 0 1-.08-.52q0-1.72.6-1.84l3.2-.64 2.24-4.52q.48-.6 1.84-.6.36 0 .68 1.44t.68 3.68h3.84q.64 0 .64 1.6t-.64 1.6h-3.88v12.72l.64 4.52v.04q.04.24 0 .32-.2.32-2 .32t-2.16-.72l-1.88-3.8zM22.968 52h-3.192v-5.712h3.192v.632h-2.472v1.784h2.328v.624h-2.328v2.04h2.472zm2.213 0v-5.712h.72v5.072h2.496V52zm8.348 0h-3.192v-5.712h3.192v.632h-2.472v1.784h2.328v.624h-2.328v2.04h2.472zm6.237-5.712L37.726 52h-.72l-2.04-5.712h.752l1.288 3.664q.089.232.152.448.064.216.112.416.056.192.096.384.04-.192.088-.392.056-.2.12-.416l.152-.456 1.28-3.648zM44.763 52l-.688-1.768H41.81L41.13 52h-.727l2.232-5.736h.648L45.507 52zm-1.544-4.136-.08-.232-.113-.344a5 5 0 0 0-.08-.28q-.039.16-.087.328a3 3 0 0 1-.089.296q-.039.135-.072.232l-.648 1.728h1.809zM48.493 52h-.72v-5.08H45.99v-.632h4.28v.632h-1.776zm6.79 0H52.09v-5.712h3.192v.632H52.81v1.784h2.328v.624H52.81v2.04h2.472zm6.888-2.904 1.488-2.808h.776l-1.904 3.496V52h-.72v-2.184l-1.904-3.528h.784zm8.83.04q0 .664-.167 1.208-.168.536-.504.928a2.1 2.1 0 0 1-.824.6 2.9 2.9 0 0 1-1.136.208q-.672 0-1.168-.208a2.24 2.24 0 0 1-.824-.6 2.6 2.6 0 0 1-.488-.936 4.3 4.3 0 0 1-.16-1.208q0-.88.288-1.536t.872-1.024q.591-.368 1.488-.368.855 0 1.44.368.583.36.88 1.024.303.656.304 1.544m-4.511 0q0 .72.2 1.24t.616.8q.423.28 1.064.28.648 0 1.056-.28.415-.28.616-.8.2-.52.2-1.24 0-1.08-.448-1.688-.45-.615-1.416-.616-.649 0-1.072.28a1.6 1.6 0 0 0-.616.792q-.2.512-.2 1.232m11.082.848q0 .592-.24 1.072-.24.472-.736.752-.489.272-1.248.272-1.065 0-1.624-.576-.552-.584-.552-1.536v-3.68h.72v3.704q0 .696.368 1.08.375.384 1.128.384.519 0 .84-.184.327-.192.48-.52.151-.336.152-.768v-3.696h.712zm4.043-3.696q.712 0 1.168.184.465.176.688.536.225.36.224.904 0 .456-.168.76a1.4 1.4 0 0 1-.432.488q-.255.175-.544.28L84.12 52h-.84l-1.384-2.36H80.76V52h-.72v-5.712zm-.04.624h-.816v2.12h.856q.465 0 .76-.12a.87.87 0 0 0 .432-.368q.144-.24.144-.6 0-.375-.152-.6a.83.83 0 0 0-.448-.328 2.4 2.4 0 0 0-.776-.104m9.22-.624q.711 0 1.191.136.488.136.728.448.248.312.248.832 0 .336-.128.6-.12.256-.368.432-.24.169-.592.232v.04q.36.056.648.208.296.151.464.432.168.28.168.728 0 .52-.24.888-.24.36-.688.552-.44.184-1.056.184h-2.008v-5.712zm.143 2.432q.736 0 1.008-.232.273-.24.272-.704 0-.472-.336-.672-.327-.208-1.056-.208h-.944v1.816zm-1.056.6v2.072h1.152q.76 0 1.056-.296t.296-.776a1 1 0 0 0-.136-.528q-.128-.224-.44-.344-.303-.128-.832-.128zm7.02-3.032q.711 0 1.167.184.465.176.688.536.225.36.224.904 0 .456-.168.76a1.4 1.4 0 0 1-.432.488 2.4 2.4 0 0 1-.544.28L99.405 52h-.84l-1.384-2.36h-1.136V52h-.72v-5.712zm-.04.624h-.817v2.12h.856q.465 0 .76-.12a.87.87 0 0 0 .432-.368q.144-.24.144-.6 0-.375-.152-.6a.83.83 0 0 0-.448-.328 2.4 2.4 0 0 0-.776-.104M104.845 52l-.688-1.768h-2.264l-.68 1.768h-.728l2.232-5.736h.648L105.59 52zm-1.544-4.136a7 7 0 0 1-.08-.232q-.056-.168-.112-.344a5 5 0 0 0-.08-.28q-.04.16-.088.328a3 3 0 0 1-.088.296q-.04.135-.072.232l-.648 1.728h1.808zM111.859 52h-.84l-3.056-4.744h-.032q.009.144.016.32.017.175.024.384l.016.416q.008.216.008.432V52h-.664v-5.712h.832l3.048 4.728h.032l-.016-.264-.016-.384-.016-.44q-.008-.224-.008-.416v-3.224h.672zm7.086-2.912q0 .96-.36 1.608a2.27 2.27 0 0 1-1.016.976q-.663.328-1.608.328h-1.592v-5.712h1.76q.864 0 1.496.32.633.32.976.944.344.616.344 1.536m-.76.024q0-.76-.256-1.248a1.55 1.55 0 0 0-.736-.72q-.48-.24-1.168-.24h-.936v4.48h.776q1.16 0 1.736-.568.585-.576.584-1.704m6.094 2.056h.84v.957q0 1.05-.84 1.05v-.304q.344-.015.426-.266.055-.152.055-.464V52h-.481zm10.038.832-.688-1.768h-2.264l-.68 1.768h-.728l2.232-5.736h.648L135.061 52zm-1.544-4.136a7 7 0 0 1-.08-.232q-.056-.168-.112-.344a5 5 0 0 0-.08-.28q-.04.16-.088.328a3 3 0 0 1-.088.296q-.04.135-.072.232l-.648 1.728h1.808zM139.322 52l-1.88-5.008h-.032q.017.16.024.408.017.248.024.544.008.288.008.592V52h-.664v-5.712h1.064l1.76 4.68h.032l1.792-4.68h1.056V52h-.712v-3.512q0-.28.008-.552.009-.28.024-.52.016-.248.024-.416h-.032l-1.904 5zm7.21-5.712q1.12 0 1.632.44t.512 1.24q0 .352-.12.68-.112.32-.376.576t-.704.408q-.44.144-1.08.144h-.656V52h-.72v-5.712zm-.064.616h-.728v2.256h.576q.544 0 .904-.112.36-.12.536-.376t.176-.672q0-.552-.352-.824t-1.112-.272M150.824 52v-5.712h.72v5.072h2.496V52zm6.763 0h-2.064v-.416l.672-.152v-4.568l-.672-.16v-.416h2.064v.416l-.672.16v4.568l.672.152zm2.783 0h-.72v-5.712h3.192v.632h-2.472v2.024h2.32v.632h-2.32zm5.876-2.904 1.488-2.808h.776l-1.904 3.496V52h-.72v-2.184l-1.904-3.528h.784zm8.678 0 1.488-2.808h.776l-1.904 3.496V52h-.72v-2.184l-1.904-3.528h.784zm8.831.04q0 .664-.168 1.208-.168.536-.504.928a2.1 2.1 0 0 1-.824.6 2.9 2.9 0 0 1-1.136.208q-.672 0-1.168-.208a2.25 2.25 0 0 1-.824-.6 2.6 2.6 0 0 1-.488-.936 4.3 4.3 0 0 1-.16-1.208q0-.88.288-1.536t.872-1.024q.593-.368 1.488-.368.856 0 1.44.368.585.36.88 1.024.304.656.304 1.544m-4.512 0q0 .72.2 1.24t.616.8q.425.28 1.064.28.648 0 1.056-.28.417-.28.616-.8.2-.52.2-1.24 0-1.08-.448-1.688-.447-.615-1.416-.616-.648 0-1.072.28a1.6 1.6 0 0 0-.616.792q-.2.512-.2 1.232m11.082.848q0 .592-.24 1.072-.24.472-.736.752-.488.272-1.248.272-1.063 0-1.624-.576-.552-.584-.552-1.536v-3.68h.72v3.704q0 .696.368 1.08.377.384 1.128.384.52 0 .84-.184.328-.192.48-.52.152-.336.152-.768v-3.696h.712zm4.044-3.696q.712 0 1.168.184.464.176.688.536t.224.904q0 .456-.168.76a1.4 1.4 0 0 1-.432.488q-.256.175-.544.28l1.568 2.56h-.84l-1.384-2.36h-1.136V52h-.72v-5.712zm-.04.624h-.816v2.12h.856q.464 0 .76-.12a.88.88 0 0 0 .432-.368q.144-.24.144-.6 0-.375-.152-.6a.83.83 0 0 0-.448-.328 2.4 2.4 0 0 0-.776-.104m9.163-.624q.712 0 1.168.184.464.176.688.536t.224.904q0 .456-.168.76a1.4 1.4 0 0 1-.432.488q-.256.175-.544.28l1.568 2.56h-.84l-1.384-2.36h-1.136V52h-.72v-5.712zm-.04.624h-.816v2.12h.856q.464 0 .76-.12a.88.88 0 0 0 .432-.368q.144-.24.144-.6 0-.375-.152-.6a.83.83 0 0 0-.448-.328 2.4 2.4 0 0 0-.776-.104M211.045 52h-3.192v-5.712h3.192v.632h-2.472v1.784h2.328v.624h-2.328v2.04h2.472zm5.797 0-.688-1.768h-2.264L213.21 52h-.728l2.232-5.736h.648L217.586 52zm-1.544-4.136a7 7 0 0 1-.08-.232q-.056-.168-.112-.344a5 5 0 0 0-.08-.28q-.04.16-.088.328a3 3 0 0 1-.088.296q-.04.135-.072.232l-.648 1.728h1.808zm6.321-1.024q-.456 0-.824.16a1.6 1.6 0 0 0-.624.456q-.256.296-.392.728a3.1 3.1 0 0 0-.136.96q0 .704.216 1.224.224.52.656.8.44.28 1.096.28.376 0 .712-.064t.656-.16v.624q-.32.12-.664.176a5 5 0 0 1-.808.056q-.872 0-1.456-.36a2.24 2.24 0 0 1-.88-1.024q-.288-.664-.288-1.56 0-.648.176-1.184.185-.536.528-.928.352-.392.864-.6a3 3 0 0 1 1.176-.216q.44 0 .848.088t.728.248l-.288.608a4.5 4.5 0 0 0-.592-.216 2.4 2.4 0 0 0-.704-.096m7.935 5.16h-.72v-2.664h-2.928V52h-.72v-5.712h.72v2.416h2.928v-2.416h.72z"/></svg>